<svg width="100" height="100" viewBox="0 0 100 100" fill="none" xmlns="http://www.w3.org/2000/svg">
<circle cx="50" cy="50" r="50" fill="#FFF7F7"/>
<path fill-rule="evenodd" clip-rule="evenodd" d="M48.088 52.5577C48.0566 52.496 48.0403 52.429 48.0403 52.3611C48.0403 52.2933 48.0566 52.2263 48.088 52.1646C48.1193 52.1119 48.162 52.0653 48.2136 52.0275C48.2651 51.9897 48.3246 51.9615 48.3884 51.9446C48.4523 51.9276 48.5193 51.9222 48.5855 51.9287C48.6517 51.9352 48.7158 51.9534 48.774 51.9823C49.4717 52.3397 50.2576 52.5355 51.0608 52.552C51.8547 52.5401 52.6317 52.3438 53.3158 51.9823C53.3737 51.9532 53.4374 51.9346 53.5034 51.9277C53.5693 51.9208 53.6361 51.9257 53.6999 51.9422C53.7637 51.9586 53.8233 51.9862 53.8751 52.0234C53.9269 52.0606 53.97 52.1067 54.0018 52.1589C54.0657 52.2641 54.0809 52.3876 54.0441 52.5028C54.0072 52.6179 53.9213 52.7154 53.8049 52.7742C52.9801 53.2095 52.0432 53.4451 51.0862 53.4577C50.2457 53.4444 49.419 53.2634 48.6661 52.928C48.4691 52.8482 48.1833 52.7514 48.088 52.5577ZM49.1615 84.8347V69.5621C47.7042 67.7686 45.6169 66.4665 43.235 65.865C40.4736 65.096 37.5616 64.8611 34.6915 65.1757L34.5454 81.6047C37.4215 81.5214 40.2951 81.8267 43.0699 82.5105C45.2127 83.0363 47.2631 83.8282 49.1615 84.8632V84.8347ZM66.3566 68.7019C66.3527 68.6526 66.3527 68.6031 66.3566 68.5538C66.3504 68.5065 66.3504 68.4587 66.3566 68.4114V65.2156C63.4462 64.9733 60.5109 65.2363 57.7114 65.9903C55.3426 66.5905 53.2433 67.8417 51.7087 69.5678V84.9999C53.8076 83.9099 56.0363 83.0347 58.353 82.3909C60.939 81.664 63.6518 81.3686 66.3566 81.5193V68.7019ZM69.2849 84.7891C66.6795 84.3112 64.0294 84.0557 61.3702 84.0258C57.9592 84.0258 54.5544 85.6892 51.137 86.8399C50.9132 86.9438 50.6649 86.998 50.4129 86.998C50.1609 86.998 49.9126 86.9438 49.6887 86.8399C46.265 85.7006 42.8539 83.9916 39.4555 84.0258C36.7731 84.0532 34.0996 84.3088 31.471 84.7891C31.471 82.2029 31.5218 79.9983 31.6044 77.9532H15C16.3911 73.3275 16.0163 70.3197 18.608 65.9504C19.6624 64.1731 21.0154 63.0736 23.6198 61.6039C27.7042 59.2968 33.2432 57.4454 38.6679 55.5598C37.8612 59.3594 39.3539 61.9571 41.9138 63.5351C42.6623 63.671 43.4022 63.8422 44.1307 64.0477C45.2329 64.3634 46.2969 64.7775 47.3067 65.2839C50.0622 65.6167 52.8657 65.3949 55.5136 64.6345C55.882 64.5035 56.2505 64.3782 56.6252 64.2699C60.8494 62.709 63.5554 59.6386 61.3575 55.5598C66.7568 57.4454 72.2831 59.2968 76.3802 61.6039C78.9846 63.0736 80.3376 64.1731 81.392 65.9504C83.99 70.3197 83.6025 73.3275 85 77.9532H69.2024C69.2468 79.9698 69.2849 82.163 69.2849 84.7891ZM34.1833 41.8993C34.6724 40.6859 35.4093 40.2986 36.3875 40.3214L35.7523 39.934C35.4093 36.0318 36.4319 29.2414 31.6996 27.9711C40.6434 18.0305 50.9719 12.6244 58.7278 21.4599C68.059 21.8985 71.8131 35.2058 64.3684 40.8284C64.3684 40.9423 64.3684 41.0562 64.324 41.1701C64.6025 41.0869 64.8899 41.0297 65.1815 40.9993C65.7063 40.9565 66.2341 41.0452 66.706 41.2556C67.2121 41.4964 67.5928 41.9054 67.7668 42.3949C67.9676 43.0532 67.9522 43.7495 67.7223 44.4001C67.725 44.4286 67.725 44.4571 67.7223 44.4856L66.5853 47.3681V47.4193C66.4521 47.8268 66.1841 48.1883 65.8167 48.4561C65.3604 48.748 64.796 48.8705 64.2414 48.7979C64.1335 48.8035 64.0253 48.8035 63.9174 48.7979C63.8412 52.102 62.0118 53.6172 59.6806 55.6054L58.7659 56.3516C56.3838 58.4138 53.7731 59.4164 51.1434 59.4164C48.5136 59.4164 45.7441 58.3853 43.235 56.3801C42.9809 56.175 42.657 55.9244 42.3457 55.6851L42.2949 55.6395C40.0082 53.8736 38.1025 52.3811 37.7405 48.8036H37.5372C37.0554 48.8034 36.5822 48.6894 36.1652 48.4732C35.5045 48.0863 34.994 47.525 34.7042 46.8668C34.3513 46.0866 34.1494 45.2582 34.1071 44.4172C34.1071 44.1609 34.1071 43.6482 34.1071 43.1583C34.1071 42.6684 34.1388 42.355 34.177 42.1272C34.1893 42.0612 34.2084 41.9963 34.2341 41.9335L34.1833 41.8993ZM37.9946 42.2867C36.9338 41.9563 36.1842 41.7968 35.892 42.3949C35.7269 43.8646 35.6125 47.7896 38.2804 47.0775C38.3666 47.0523 38.4565 47.0389 38.5472 47.0377C38.664 47.0354 38.7801 47.0538 38.889 47.0918C38.9979 47.1298 39.0973 47.1866 39.1817 47.2591C39.266 47.3316 39.3336 47.4183 39.3806 47.5142C39.4276 47.6101 39.4531 47.7134 39.4555 47.8181C39.5445 51.3899 41.2976 52.7798 43.4446 54.4319L43.5018 54.4717L44.3911 55.1667C46.5699 56.8757 48.8376 57.8043 51.118 57.8043C53.3984 57.8043 55.4946 56.9669 57.559 55.2009C57.8829 54.9161 58.1942 54.6654 58.4737 54.4205C60.7541 52.5007 62.431 51.088 62.1071 47.6415C62.096 47.493 62.1311 47.3446 62.2085 47.213C62.286 47.0813 62.4027 46.9715 62.5457 46.8959C62.6886 46.8203 62.8522 46.7818 63.0182 46.7847C63.1841 46.7876 63.3459 46.8318 63.4855 46.9123C63.6347 47.0018 63.7945 47.0763 63.9619 47.1345C64.0859 47.1772 64.2167 47.2022 64.3494 47.2086C64.4754 47.2285 64.6044 47.2285 64.7305 47.2086C64.794 47.163 68.1289 40.3157 63.7967 43.1583C63.6588 43.2657 63.4873 43.3324 63.3057 43.3493C63.124 43.3662 62.9409 43.3326 62.7813 43.2529C62.6216 43.1733 62.4933 43.0515 62.4135 42.9041C62.3338 42.7567 62.3067 42.5908 62.3358 42.4291C63.1742 38.0427 62.7868 35.1887 61.745 33.2405C60.8899 31.7162 59.5055 30.4826 57.8004 29.7256C54.2813 32.1239 51.8421 32.3803 49.3584 32.6708C46.9335 32.808 44.5974 33.5412 42.6062 34.7899C41.4415 35.4714 40.551 36.4696 40.0653 37.6382C39.6145 38.9325 39.5792 40.3145 39.9637 41.6259C39.9974 41.7739 39.9864 41.9273 39.9319 42.0702C39.8504 42.2677 39.6851 42.4282 39.4721 42.5168C39.2591 42.6054 39.0157 42.6148 38.7949 42.543L38.6488 42.4975L38.0136 42.2867H37.9946ZM48.5327 38.601C49.1107 38.9371 49.1679 39.4498 48.755 39.6605C48.1706 39.9568 47.4211 39.5181 46.8494 39.3529C45.3503 38.9257 43.5653 38.8744 42.2759 39.5979C41.8969 39.8204 41.5417 40.0741 41.2151 40.3555C41.3422 39.9424 41.558 39.5554 41.8503 39.2162C42.9111 38.0199 45.274 37.7408 47.0526 38.1168C47.5625 38.227 48.0538 38.3975 48.5136 38.6238L48.5327 38.601ZM53.3158 38.6921C52.8711 39.0225 52.8457 39.4726 53.2332 39.6605C53.824 39.9568 54.5608 39.5181 55.1388 39.3529C56.6379 38.9257 58.4102 38.8744 59.706 39.5979C60.0728 39.8232 60.4171 40.0767 60.735 40.3555C60.61 39.9416 60.3941 39.5542 60.0998 39.2162C59.147 38.1339 57.127 37.8034 55.431 38.0256C54.6767 38.1226 53.9524 38.3572 53.3031 38.7149L53.3158 38.6921ZM43.2668 41.3183C43.2071 41.3002 43.1536 41.2687 43.1113 41.2269C43.0691 41.185 43.0395 41.1341 43.0254 41.079C42.9907 40.9888 42.995 40.8903 43.0373 40.8028C43.0796 40.7152 43.157 40.6451 43.2541 40.6062C44.6841 40.1076 46.2705 40.1076 47.7005 40.6062C47.7985 40.643 47.8776 40.7113 47.9223 40.7977C47.9669 40.8842 47.974 40.9825 47.9419 41.0733C47.9328 41.1176 47.9131 41.1597 47.8842 41.1965C47.8553 41.2334 47.8178 41.2643 47.7744 41.287C47.731 41.3097 47.6826 41.3237 47.6326 41.3281C47.5826 41.3326 47.5321 41.3272 47.4846 41.3126C47.2368 41.2385 46.9955 41.1701 46.7477 41.1189C46.7697 41.2011 46.7825 41.285 46.7858 41.3695C46.7866 41.5074 46.7531 41.6437 46.6878 41.7684C46.6225 41.8932 46.527 42.0034 46.4083 42.091C46.2896 42.1786 46.1507 42.2414 46.0015 42.2748C45.8524 42.3083 45.6969 42.3115 45.5462 42.2843C45.3955 42.2571 45.2534 42.2001 45.1303 42.1176C45.0072 42.035 44.9062 41.9289 44.8345 41.8069C44.7628 41.685 44.7223 41.5503 44.716 41.4125C44.7096 41.2748 44.7375 41.1375 44.7976 41.0106C44.3853 41.0587 43.9805 41.1485 43.5907 41.2784C43.5404 41.3048 43.4847 41.3219 43.4269 41.3288C43.3691 41.3356 43.3103 41.332 43.2541 41.3183H43.2668ZM55.4691 41.0448C55.4306 41.1496 55.4113 41.2592 55.412 41.3695C55.412 41.6143 55.5204 41.849 55.7134 42.0221C55.9064 42.1952 56.1681 42.2924 56.441 42.2924C56.7139 42.2924 56.9757 42.1952 57.1687 42.0221C57.3616 41.849 57.4701 41.6143 57.4701 41.3695C57.4733 41.2257 57.4384 41.0832 57.3684 40.9537C57.8309 41.0024 58.2864 41.094 58.7278 41.2271C58.7763 41.2408 58.8275 41.2448 58.8779 41.2389C58.9283 41.233 58.9767 41.2173 59.0197 41.1929C59.0626 41.1685 59.0991 41.136 59.1266 41.0976C59.1541 41.0592 59.1719 41.0159 59.1788 40.9708C59.2123 40.88 59.2061 40.7811 59.1612 40.6943C59.1164 40.6076 59.0363 40.5394 58.9374 40.5036C58.2163 40.2887 57.4613 40.1791 56.7015 40.1789C55.9515 40.1798 55.2068 40.2914 54.4973 40.5093C54.3984 40.544 54.3175 40.6105 54.2705 40.6959C54.2235 40.7812 54.2137 40.8793 54.2432 40.9708C54.2511 41.0155 54.2695 41.0582 54.2973 41.0961C54.325 41.134 54.3614 41.1661 54.4041 41.1903C54.4468 41.2146 54.4947 41.2304 54.5447 41.2367C54.5947 41.2431 54.6457 41.2398 54.6942 41.2271C54.9488 41.1526 55.2074 41.0899 55.4691 41.0391V41.0448ZM49.8221 49.8062C49.7244 49.7307 49.6642 49.6234 49.6547 49.508C49.6451 49.3927 49.6871 49.2786 49.7713 49.191C49.8556 49.1034 49.9752 49.0493 50.1038 49.0408C50.2325 49.0322 50.3596 49.0699 50.4574 49.1454C50.5471 49.2318 50.6558 49.3008 50.7765 49.3479C50.8973 49.395 51.0276 49.4194 51.1593 49.4194C51.291 49.4194 51.4212 49.395 51.542 49.3479C51.6628 49.3008 51.7714 49.2318 51.8612 49.1454C51.9596 49.0729 52.0857 49.0377 52.2126 49.0473C52.3395 49.0568 52.4573 49.1104 52.5408 49.1967C52.5811 49.24 52.6114 49.29 52.63 49.3438C52.6486 49.3977 52.6552 49.4543 52.6493 49.5105C52.6434 49.5666 52.6251 49.6211 52.5956 49.6709C52.5661 49.7207 52.5259 49.7647 52.4773 49.8005C52.1115 50.0983 51.6373 50.2663 51.1434 50.2733C50.6709 50.2604 50.2196 50.0945 49.873 49.8062H49.8221Z" fill="black"/>
</svg>
